Motion_pu02
version=1
nRows=8
nColumns=43
inDegrees=yes
endheader
time	pelvis_tilt	pelvis_list	pelvis_rotation	pelvis_tx	pelvis_ty	pelvis_tz	hip_flexion_r	hip_adduction_r	hip_rotation_r	knee_angle_r	ankle_angle_r	subtalar_angle_r	mtp_angle_r	hip_flexion_l	hip_adduction_l	hip_rotation_l	knee_angle_l	ankle_angle_l	subtalar_angle_l	mtp_angle_l	lumbar_extension	lumbar_bending	lumbar_rotation	neck_flexion	neck_lateral_bending	neck_rotation	arm_flex_r	arm_add_r	arm_rot_r	elbow_flex_r	pro_sup_r	wrist_flex_r	wrist_dev_r	hand_finger_flex_r	arm_flex_l	arm_add_l	arm_rot_l	elbow_flex_l	pro_sup_l	wrist_flex_l	wrist_dev_l	hand_finger_flex_l
      0.82750000	      0.07124103	     13.95094242	    -88.65500493	      0.01329569	      1.04135326	      1.00177779	     14.33498991	     -6.43277137	    -10.49144841	     -8.49996812	    -21.12891076	     -8.51181476	     -5.70718288	     12.10456574	     -1.60719884	    -12.09538403	     -7.90056045	     -7.24089555	     -7.16479303	     -8.50876464	     23.45384485	     -3.63880936	     -3.89981809	      1.17428448	      6.77349941	      3.64083180	    -98.02859955	   -139.08995149	   -184.91410034	    104.25487862	    137.06672472	      7.73874566	     -6.17442031	     74.93559550	     97.91638144	    -38.49843487	     11.68520369	    106.43260195	    139.13873125	      8.27188122	     17.03015264	     90.00021046
      0.83000000	      0.09370648	     13.83015678	    -88.69972088	      0.01351530	      1.04419682	      1.00065675	     14.25068474	     -6.42160964	    -10.55754529	     -8.31808527	    -20.97834543	     -8.87306586	     -5.93248740	     11.99925585	     -1.57975681	    -12.28683510	     -7.67621725	     -7.22785446	     -7.17621021	     -8.45663315	     23.35119709	     -3.63957026	     -3.62535158	      0.93250642	      6.77772529	      3.50895038	    -98.81840203	   -138.83233692	   -185.32304798	    104.77495680	    137.38230025	      7.73913360	     -6.21242077	     74.85741687	     96.86397908	    -37.86367632	     10.76252565	    106.87178400	    139.77690928	      8.18284611	     16.90242707	     90.00021046
      0.83250000	      0.10804620	     13.80507470	    -88.77125855	      0.01331599	      1.04688172	      0.99932000	     14.30758249	     -6.37722766	    -10.57523736	     -8.14631762	    -20.85873184	     -8.95727904	     -5.98631177	     12.02266672	     -1.60014852	    -12.33399754	     -7.47920415	     -7.14067142	     -7.20709688	     -8.43247123	     23.28932439	     -3.64516959	     -3.58318032	      0.96957620	      6.69155228	      3.48357352	    -99.60666344	   -138.98113324	   -185.87938270	    105.23327577	    137.38882596	      7.69792933	     -6.21386506	     74.84595640	     96.22516796	    -37.97352950	     10.50371206	    107.40380267	    139.91855980	      8.15718320	     16.83119330	     90.00021046
      0.83500000	      0.13397377	     13.75475183	    -88.80873611	      0.01327366	      1.04966024	      0.99807869	     14.31613016	     -6.36979079	    -10.60400154	     -8.00392269	    -20.68915451	     -9.05981637	     -6.03636229	     12.04186174	     -1.59605927	    -12.42397567	     -7.32621700	     -7.07714609	     -7.23060829	     -8.41062002	     23.22740095	     -3.66903505	     -3.51073582	      0.97538960	      6.63457667	      3.47513291	   -100.40447768	   -139.05786593	   -186.37976217	    105.69605562	    137.43260295	      7.65173560	     -6.22178322	     74.82950186	     95.41799803	    -37.90697456	     10.03672046	    107.89866048	    140.09086210	      8.11440440	     16.78735414	     90.00021046
      0.83750000	      0.17694379	     13.62125946	    -88.87502953	      0.01346978	      1.05253754	      0.99697869	     14.24461464	     -6.38873049	    -10.65793805	     -7.88570143	    -20.33642130	     -9.23615684	     -6.23153938	     11.93863924	     -1.55909943	    -12.70713423	     -7.13435186	     -7.13015389	     -7.16774534	     -8.36699531	     23.10310488	     -3.68814706	     -3.17292059	      0.80670323	      6.66745061	      3.36721027	   -101.23410029	   -138.76831736	   -186.85799311	    106.25833064	    137.82322694	      7.63371010	     -6.27621049	     74.72312785	     94.42296961	    -37.20762348	      9.20228180	    108.30511611	    140.80600766	      8.03054684	     16.60626278	     90.00021046
      0.84000000	      0.20380891	     13.58071200	    -88.96822972	      0.01321916	      1.05526863	      0.99571623	     14.29300449	     -6.35096069	    -10.67576269	     -7.74536731	    -20.18862665	     -9.26263782	     -6.27218776	     11.96603167	     -1.57542560	    -12.75458501	     -7.00195137	     -7.05957786	     -7.17087428	     -8.34589211	     23.03857221	     -3.69724356	     -3.11498227	      0.83696634	      6.60037889	      3.33964076	   -102.02945558	   -138.98541047	   -187.40862403	    106.68024634	    137.83694222	      7.59495889	     -6.27659128	     74.70987825	     93.78087103	    -37.34176159	      8.97845742	    108.77031977	    140.94729861	      8.00880526	     16.53390386	     90.00021046
      0.84250000	      0.27189392	     13.46232787	    -89.00656214	      0.01343608	      1.05815168	      0.99461712	     14.23616160	     -6.40840858	    -10.70730691	     -7.63793434	    -19.74757082	     -9.27013963	     -6.45560049	     11.91077428	     -1.52042145	    -13.04303940	     -6.86512524	     -7.06911409	     -7.01143362	     -8.29517618	     22.92886851	     -3.75436034	     -2.82633331	      0.67813657	      6.65232328	      3.21042475	   -102.88408937	   -138.79410724	   -187.94958133	    107.24961939	    138.22005512	      7.60674047	     -6.34138915	     74.59755796	     92.81323720	    -36.73328045	      8.24308179	    109.21301281	    141.67371796	      7.91531612	     16.29465208	     90.00021046
      0.84500000	      0.37312628	     13.33207482	    -89.19714471	      0.01290315	      1.06106735	      0.99353195	     14.21795240	     -6.43674093	    -10.72848117	     -7.60065842	    -19.03977955	     -8.78065082	     -7.16252892	     11.77358292	     -1.50761386	    -13.53709230	     -6.64789392	     -6.96055260	     -6.37439971	     -8.11569731	     22.79283707	     -3.91341445	     -2.41204868	      0.58631666	      6.84439132	      2.74656070	   -103.99098065	   -138.66087873	   -188.91577109	    107.96432040	    139.08492972	      7.97933235	     -6.55575503	     74.18278650	     92.25447856	    -36.28137942	      8.14448404	    109.54854479	    143.64389715	      7.81776812	     15.18982229	     90.00021046
